<?xml version="1.0" encoding="UTF-8"?>
<svg id="_图层_1" data-name="图层 1" xmlns="http://www.w3.org/2000/svg" viewBox="0 0 384 164.31">
  <defs>
    <style>
      .cls-1 {
        fill: #fff;
        stroke-width: 0px;
      }
    </style>
  </defs>
  <g>
    <path class="cls-1" d="m384,48.72v15.32c0,19.01-17.15,56.66-62.18,56.66-34.69,0-62.18-26.39-62.18-60.35S287.13,0,321.82,0c18.45,0,36.54,7.57,49.45,23.81l-17.71,13.29c-7.38-10.71-18.64-16.79-31.74-16.79-20.84,0-39.68,17.54-39.68,40.04s18.82,40.04,39.68,40.04c19.2,0,34.69-11.63,39.32-31.38h-39.44v-20.31h62.31v.02Z"/>
    <path class="cls-1" d="m252.36,70.18c-.47-3.2-.73-6.49-.73-9.83,0-3.73.32-7.38.9-10.97-18.3-2.6-36.22-2.86-36.22-15.62,0-7.02,6.63-15.68,24.36-15.68,7.68,0,14.57,1.64,21.52,5.95,3.73-5.89,8.34-11.16,13.67-15.66C266.31,2.86,254.92,0,241.77,0,215.39,0,193.8,14.21,193.8,34.88c0,33.07,36.59,30.78,58.56,35.28v.02Z"/>
    <path class="cls-1" d="m261.4,95.42c-4.93,3.18-12.07,4.89-20.56,4.99-13.46,0-25.64-6.46-34.32-15.68l-16.23,14.57c14.57,15.32,33.41,21.4,49.64,21.4,12.82,0,25.15-3.39,34.5-9.62-5.08-4.54-9.47-9.81-13.01-15.68v.02Z"/>
    <rect class="cls-1" x="110.96" y="4.89" width="70.91" height="20.95"/>
    <rect class="cls-1" x="110.96" y="52.33" width="70.91" height="20.95"/>
    <path class="cls-1" d="m47.5,102.61c-14.72-1.88-26.09-14.21-26.09-33.68V4.89H.01v68.65C.01,99.13,18.74,121.15,47.5,123.03v-20.42h0Z"/>
    <path class="cls-1" d="m81.57,4.89v64.04c0,19.5-11.22,31.83-26.09,33.71v20.42c28.76-1.88,47.49-23.91,47.49-49.49V4.91h-21.4v-.02Z"/>
    <path class="cls-1" d="m104.82,99.77c-2.28,4.61-7.91,13.99-18.5,20.95h95.53v-20.95h-77.03Z"/>
  </g>
  <g>
    <path class="cls-1" d="m13.03,143.33h3.74v13.5c0,1.48-.35,2.78-1.05,3.91-.7,1.12-1.67,2-2.93,2.63s-2.73.94-4.41.94-3.16-.31-4.42-.94-2.23-1.51-2.93-2.63c-.69-1.12-1.04-2.43-1.04-3.91v-13.5h3.74v13.19c0,.86.19,1.63.57,2.3.38.67.92,1.2,1.61,1.58.69.38,1.51.57,2.46.57s1.77-.19,2.47-.57c.7-.38,1.23-.91,1.61-1.58.38-.67.57-1.44.57-2.3v-13.19Z"/>
    <path class="cls-1" d="m37.83,143.33v20.67h-3.33l-9.74-14.08h-.17v14.08h-3.74v-20.67h3.35l9.73,14.09h.18v-14.09h3.72Z"/>
    <path class="cls-1" d="m45.65,143.33v20.67h-3.74v-20.67h3.74Z"/>
    <path class="cls-1" d="m52.48,143.33l5.38,16.27h.21l5.37-16.27h4.12l-7.29,20.67h-4.62l-7.28-20.67h4.11Z"/>
    <path class="cls-1" d="m70.28,164v-20.67h13.44v3.14h-9.7v5.61h9v3.14h-9v5.64h9.78v3.14h-13.52Z"/>
    <path class="cls-1" d="m117.27,149.01c-.09-.88-.49-1.57-1.19-2.06s-1.6-.74-2.71-.74c-.78,0-1.45.12-2.01.35s-.99.56-1.28.96c-.3.4-.45.86-.45,1.38,0,.43.1.8.3,1.12.2.32.47.58.81.8.34.22.72.4,1.14.55.42.15.84.27,1.26.37l1.94.48c.78.18,1.53.43,2.25.74s1.37.7,1.95,1.17c.58.47,1.03,1.04,1.37,1.71s.5,1.45.5,2.34c0,1.21-.31,2.28-.93,3.19-.62.92-1.51,1.64-2.68,2.15-1.17.52-2.58.77-4.23.77s-3-.25-4.18-.75c-1.18-.5-2.1-1.22-2.76-2.18-.66-.96-1.02-2.12-1.08-3.49h3.68c.05.72.28,1.32.67,1.8.39.48.9.83,1.53,1.07s1.33.35,2.11.35,1.53-.12,2.15-.37c.62-.25,1.1-.59,1.45-1.03.35-.44.53-.96.54-1.55,0-.54-.17-.99-.48-1.34-.31-.35-.74-.65-1.3-.89-.56-.24-1.2-.45-1.94-.64l-2.35-.61c-1.7-.44-3.05-1.1-4.03-1.99-.99-.89-1.48-2.08-1.48-3.56,0-1.22.33-2.29.99-3.2.66-.91,1.57-1.63,2.71-2.13,1.14-.51,2.44-.76,3.89-.76s2.75.25,3.86.76c1.11.51,1.98,1.21,2.61,2.11.63.9.96,1.93.98,3.09h-3.6Z"/>
    <path class="cls-1" d="m144.73,164v-20.67h3.74v17.53h9.1v3.14h-12.85Z"/>
    <path class="cls-1" d="m167.87,164v-20.67h13.44v3.14h-9.7v5.61h9v3.14h-9v5.64h9.78v3.14h-13.52Z"/>
    <path class="cls-1" d="m196.37,149.01c-.09-.88-.49-1.57-1.19-2.06s-1.6-.74-2.71-.74c-.78,0-1.45.12-2.01.35s-.99.56-1.28.96c-.3.4-.45.86-.45,1.38,0,.43.1.8.3,1.12.2.32.47.58.81.8.34.22.72.4,1.14.55.42.15.84.27,1.26.37l1.94.48c.78.18,1.53.43,2.25.74s1.37.7,1.95,1.17c.58.47,1.03,1.04,1.37,1.71s.5,1.45.5,2.34c0,1.21-.31,2.28-.93,3.19-.62.92-1.51,1.64-2.68,2.15-1.17.52-2.58.77-4.23.77s-3-.25-4.18-.75c-1.18-.5-2.1-1.22-2.76-2.18-.66-.96-1.02-2.12-1.08-3.49h3.68c.05.72.28,1.32.67,1.8.39.48.9.83,1.53,1.07s1.33.35,2.11.35,1.53-.12,2.15-.37c.62-.25,1.1-.59,1.45-1.03.35-.44.53-.96.54-1.55,0-.54-.17-.99-.48-1.34-.31-.35-.74-.65-1.3-.89-.56-.24-1.2-.45-1.94-.64l-2.35-.61c-1.7-.44-3.05-1.1-4.03-1.99-.99-.89-1.48-2.08-1.48-3.56,0-1.22.33-2.29.99-3.2.66-.91,1.57-1.63,2.71-2.13,1.14-.51,2.44-.76,3.89-.76s2.75.25,3.86.76c1.11.51,1.98,1.21,2.61,2.11.63.9.96,1.93.98,3.09h-3.6Z"/>
    <path class="cls-1" d="m217.43,149.93c-.17-.55-.4-1.03-.69-1.47-.29-.43-.64-.8-1.05-1.11s-.87-.54-1.4-.7c-.52-.16-1.1-.24-1.71-.24-1.11,0-2.1.28-2.97.84-.87.56-1.55,1.38-2.04,2.46-.49,1.08-.74,2.39-.74,3.94s.25,2.88.74,3.97c.49,1.08,1.17,1.91,2.05,2.47s1.89.84,3.05.84c1.05,0,1.96-.2,2.73-.61.77-.4,1.36-.98,1.78-1.72.42-.74.62-1.62.62-2.62l.85.13h-5.61v-2.93h8.39v2.48c0,1.77-.38,3.3-1.13,4.59-.75,1.29-1.79,2.29-3.11,2.98-1.32.7-2.83,1.04-4.54,1.04-1.9,0-3.57-.43-5.01-1.29s-2.56-2.08-3.36-3.66-1.21-3.47-1.21-5.65c0-1.67.24-3.16.71-4.47.48-1.31,1.14-2.43,1.99-3.34s1.86-1.62,3.01-2.1,2.4-.72,3.75-.72c1.14,0,2.21.17,3.2.5s1.87.81,2.64,1.42c.77.61,1.4,1.34,1.9,2.18.5.84.82,1.77.98,2.78h-3.82Z"/>
    <path class="cls-1" d="m243.33,149.01c-.09-.88-.49-1.57-1.19-2.06-.7-.49-1.6-.74-2.71-.74-.78,0-1.45.12-2.01.35-.56.24-.99.56-1.28.96-.3.4-.45.86-.45,1.38,0,.43.1.8.3,1.12.2.32.47.58.81.8.34.22.72.4,1.14.55.42.15.84.27,1.26.37l1.94.48c.78.18,1.53.43,2.26.74.72.31,1.37.7,1.95,1.17.57.47,1.03,1.04,1.37,1.71.34.67.5,1.45.5,2.34,0,1.21-.31,2.28-.93,3.19-.62.92-1.51,1.64-2.68,2.15-1.17.52-2.58.77-4.23.77s-3-.25-4.18-.75c-1.18-.5-2.1-1.22-2.77-2.18-.66-.96-1.02-2.12-1.07-3.49h3.68c.06.72.28,1.32.67,1.8.39.48.9.83,1.53,1.07s1.33.35,2.12.35,1.53-.12,2.14-.37,1.1-.59,1.45-1.03c.35-.44.53-.96.53-1.55,0-.54-.16-.99-.47-1.34-.31-.35-.74-.65-1.3-.89-.56-.24-1.2-.45-1.94-.64l-2.35-.61c-1.7-.44-3.05-1.1-4.03-1.99-.99-.89-1.48-2.08-1.48-3.56,0-1.22.33-2.29.99-3.2.66-.91,1.57-1.63,2.71-2.13,1.14-.51,2.44-.76,3.89-.76s2.75.25,3.86.76c1.11.51,1.98,1.21,2.61,2.11.63.9.96,1.93.98,3.09h-3.6Z"/>
    <path class="cls-1" d="m249.64,146.47v-3.14h16.49v3.14h-6.39v17.53h-3.71v-17.53h-6.39Z"/>
    <path class="cls-1" d="m304.34,143.33v20.67h-3.33l-9.74-14.08h-.17v14.08h-3.74v-20.67h3.35l9.73,14.09h.18v-14.09h3.72Z"/>
    <path class="cls-1" d="m315.42,164h-7.01v-20.67h7.15c2.05,0,3.82.41,5.29,1.24,1.48.82,2.61,2.01,3.4,3.55.8,1.54,1.19,3.38,1.19,5.53s-.4,4-1.2,5.55-1.95,2.73-3.44,3.56c-1.5.83-3.3,1.24-5.39,1.24Zm-3.26-3.24h3.08c1.44,0,2.64-.26,3.6-.79.96-.53,1.69-1.32,2.17-2.37.49-1.05.73-2.37.73-3.95s-.24-2.9-.73-3.94c-.48-1.05-1.2-1.83-2.14-2.35-.95-.52-2.12-.78-3.52-.78h-3.19v14.19Z"/>
    <path class="cls-1" d="m341.74,164h4l-7.29-20.67h-4.62l-7.28,20.67h4l1.71-5.1h7.77l1.71,5.1Zm-8.47-8.1l2.79-8.33h.16l2.8,8.33h-5.75Z"/>
    <path class="cls-1" d="m99.26,155.64c1.09-.53,1.92-1.28,2.48-2.25.56-.97.84-2.12.84-3.45s-.28-2.47-.83-3.46c-.56-.99-1.37-1.76-2.45-2.32-1.08-.55-2.41-.83-4-.83h-7.75v20.67h3.74v-7.57h3.81l4.06,7.57h4.18l-4.49-8.22c.13-.05.29-.08.42-.14Zm-7.97-9.18h3.43c.94,0,1.7.14,2.29.41s1.03.67,1.32,1.19c.29.52.43,1.15.43,1.88s-.14,1.35-.43,1.85c-.29.5-.73.88-1.32,1.14s-1.35.39-2.28.39h-3.45v-6.86Z"/>
    <path class="cls-1" d="m130.1,143.33l-7.28,20.67h4l1.71-5.1h7.77l1.71,5.1h4l-7.29-20.67h-4.62Zm-.56,12.57l2.79-8.33h.16l2.8,8.33h-5.75Z"/>
    <path class="cls-1" d="m272.72,143.33l-7.28,20.67h4l1.71-5.1h7.77l1.71,5.1h4l-7.29-20.67h-4.62Zm-.56,12.57l2.79-8.33h.16l2.8,8.33h-5.75Z"/>
    <path class="cls-1" d="m360.08,164h4.18l-4.5-8.22c.13-.05.29-.08.42-.14,1.09-.53,1.91-1.28,2.48-2.25.56-.97.84-2.12.84-3.45s-.28-2.47-.83-3.46c-.56-.99-1.37-1.76-2.45-2.32-1.08-.55-2.41-.83-4-.83h-7.75v20.67h3.74v-7.57h3.81l4.06,7.57Zm-7.87-17.54h3.43c.93,0,1.7.14,2.29.41.59.27,1.03.67,1.32,1.19.29.52.43,1.15.43,1.88s-.14,1.35-.43,1.85c-.28.5-.72.88-1.32,1.14s-1.35.39-2.28.39h-3.45v-6.86Z"/>
    <path class="cls-1" d="m373.96,164h-7.01v-20.67h7.15c2.05,0,3.82.41,5.29,1.24,1.48.82,2.61,2.01,3.4,3.55.8,1.54,1.19,3.38,1.19,5.53s-.4,4-1.2,5.55-1.95,2.73-3.44,3.56-3.3,1.24-5.39,1.24Zm-3.26-3.24h3.08c1.44,0,2.64-.26,3.6-.79.96-.53,1.69-1.32,2.17-2.37.49-1.05.73-2.37.73-3.95s-.24-2.9-.73-3.94c-.48-1.05-1.2-1.83-2.14-2.35-.95-.52-2.12-.78-3.52-.78h-3.19v14.19Z"/>
  </g>
</svg>