<?xml version="1.0" encoding="UTF-8"?>
<svg id="_图层_1" data-name="图层 1" xmlns="http://www.w3.org/2000/svg" viewBox="0 0 22 22">
  <defs>
    <style>
      .cls-1 {
        fill: #5cb539;
        stroke-width: 0px;
      }
    </style>
  </defs>
  <path class="cls-1" d="m9.36,17.68c-.31,0-.58-.15-.81-.45l-4.05-5.16c-.08-.09-.14-.19-.17-.29-.04-.1-.05-.19-.05-.29,0-.21.07-.39.21-.53.14-.14.32-.21.54-.21.26,0,.48.13.67.38l3.64,4.77,7.02-11.18c.09-.15.19-.25.29-.31.1-.06.23-.09.38-.09.21,0,.39.07.52.2.13.13.2.3.2.52,0,.09-.02.19-.05.28-.03.09-.08.19-.15.3l-7.38,11.62c-.19.29-.46.44-.79.44Z"/>
</svg>