<?xml version="1.0" encoding="UTF-8"?>
<svg id="_图层_1" data-name="图层 1" xmlns="http://www.w3.org/2000/svg" viewBox="0 0 58 18">
  <defs>
    <style>
      .cls-1 {
        fill: #505050;
      }

      .cls-1, .cls-2 {
        stroke-width: 0px;
      }

      .cls-2 {
        fill: #fff;
      }
    </style>
  </defs>
  <rect class="cls-1" y="0" width="58" height="18" rx="9" ry="9"/>
  <g>
    <path class="cls-2" d="m15.58,9.6h3.3v3.06c-.25.14-.51.26-.76.38s-.53.21-.81.29-.6.15-.95.19-.73.07-1.15.07c-.68,0-1.31-.1-1.89-.29s-1.07-.46-1.49-.81-.75-.77-.98-1.26-.35-1.04-.35-1.63c0-.63.12-1.21.35-1.73s.56-.97.98-1.35.92-.67,1.49-.87,1.21-.31,1.89-.31c.4,0,.79.05,1.16.16s.72.25,1.03.43.6.39.86.62.46.47.63.72l-.8.73c-.17-.24-.34-.46-.53-.66s-.38-.38-.59-.53-.43-.27-.67-.35-.49-.13-.76-.13c-.41,0-.79.07-1.15.22s-.66.36-.92.64-.46.62-.61,1.03-.22.87-.22,1.38.08.97.23,1.37.37.73.64,1,.58.47.95.61.75.21,1.16.21c.25,0,.48-.03.7-.1s.42-.16.6-.3v-2.11h-1.35v-.68Z"/>
    <path class="cls-2" d="m22.5,13.47h-1.81V5.08l1.27-.67h.54v9.06Z"/>
    <path class="cls-2" d="m27.17,13.58c-.48,0-.92-.08-1.32-.23s-.75-.37-1.05-.64-.53-.59-.69-.96-.25-.77-.25-1.2c0-.46.08-.89.25-1.27s.4-.72.69-1,.64-.5,1.05-.66.84-.24,1.32-.24.92.08,1.32.23.76.37,1.05.64.53.59.69.95.25.76.25,1.18-.08.86-.25,1.25-.4.73-.69,1.02-.65.52-1.05.69-.85.25-1.32.25Zm.21-.73c.16,0,.32-.05.46-.16s.26-.25.37-.43.18-.39.24-.63.08-.49.08-.74c0-.38-.03-.74-.08-1.08s-.15-.63-.28-.89-.3-.46-.5-.6-.46-.22-.75-.22c-.14,0-.28.05-.42.16s-.25.25-.35.42-.18.38-.24.62-.09.48-.09.74c0,.39.04.75.11,1.1s.18.64.31.9.3.46.49.61.41.23.66.23Z"/>
    <path class="cls-2" d="m32,5.08l1.28-.67h.54v3.47c.23-.15.49-.28.77-.38s.54-.15.8-.15c.38,0,.72.07,1.04.21s.59.34.82.58.41.53.54.85.19.67.19,1.03c0,.32-.04.63-.12.93s-.2.58-.35.84-.33.5-.54.72-.45.41-.7.56-.53.27-.83.36-.6.13-.92.13c-.47,0-.92-.06-1.36-.19s-.82-.33-1.16-.61v-7.71Zm1.83,7.31c.06.05.13.11.19.16s.14.1.21.13.15.07.24.09.18.04.28.04c.2,0,.39-.06.55-.18s.31-.29.43-.51.21-.47.28-.77.1-.61.1-.95c0-.25-.03-.49-.1-.72s-.16-.42-.27-.59-.25-.3-.41-.4-.32-.15-.5-.15-.34.05-.53.15-.34.23-.47.38v3.32Z"/>
    <path class="cls-2" d="m38.74,8.99c.06-.25.17-.48.33-.68s.35-.38.58-.52.5-.25.8-.33.62-.12.97-.12c.43,0,.8.04,1.11.12s.57.19.77.33.35.31.45.52.14.43.14.68v3.43c0,.25.08.46.23.63s.37.31.64.43h-2.16c-.06,0-.12-.02-.18-.05s-.11-.08-.16-.14-.09-.12-.12-.18-.06-.13-.08-.19c-.11.1-.21.19-.31.28s-.21.16-.32.21-.25.1-.39.14-.32.05-.52.05c-.28,0-.53-.04-.75-.12s-.41-.19-.56-.33-.27-.3-.35-.49-.12-.4-.12-.62c0-.34.1-.64.29-.88s.44-.46.76-.64.67-.34,1.07-.48.8-.27,1.22-.39v-.59c0-.19-.02-.35-.06-.49s-.09-.24-.16-.33-.16-.14-.25-.18-.21-.06-.33-.06c-.14,0-.27.03-.39.08s-.21.13-.29.22-.15.2-.2.32-.09.25-.11.38h-1.53Zm3.33,1.38c-.18.07-.35.16-.53.27s-.34.22-.48.35-.26.28-.35.43-.14.33-.14.51c0,.2.05.36.16.47s.24.17.42.17c.15,0,.29-.04.44-.13s.31-.2.49-.34v-1.73Z"/>
    <path class="cls-2" d="m47.51,13.47h-1.81V5.08l1.27-.67h.54v9.06Z"/>
  </g>
</svg>