<?xml version="1.0" encoding="UTF-8"?>
<svg id="_图层_1" data-name="图层 1" xmlns="http://www.w3.org/2000/svg" viewBox="0 0 44 18">
  <defs>
    <style>
      .cls-1 {
        fill: #e02020;
      }

      .cls-1, .cls-2 {
        stroke-width: 0px;
      }

      .cls-2 {
        fill: #fff;
      }
    </style>
  </defs>
  <rect class="cls-1" x="0" y="0" width="44" height="18" rx="9" ry="9"/>
  <g>
    <path class="cls-2" d="m12.83,9.13v4.22h-2.17V4.5h2.17v3.88h3.56v-3.88h2.15v8.85h-2.15v-4.22h-3.56Z"/>
    <path class="cls-2" d="m23.88,13.47c-.53,0-1.02-.09-1.47-.26s-.84-.41-1.17-.72-.59-.66-.77-1.07-.28-.86-.28-1.33c0-.51.09-.99.28-1.42s.44-.81.77-1.12.71-.56,1.16-.73.94-.26,1.47-.26,1.02.09,1.47.26.84.41,1.17.71.59.65.77,1.06.28.85.28,1.32-.09.96-.28,1.39-.44.81-.77,1.14-.72.58-1.17.77-.94.28-1.47.28Zm.23-.82c.18,0,.35-.06.51-.18s.29-.28.41-.48.2-.44.27-.7.09-.54.09-.83c0-.43-.03-.83-.09-1.2s-.17-.71-.31-.99-.33-.51-.56-.67-.51-.25-.84-.25c-.16,0-.32.06-.46.18s-.28.28-.39.47-.2.43-.27.69-.1.53-.1.82c0,.43.04.84.12,1.22s.2.72.35,1,.33.51.55.68.46.25.73.25Z"/>
    <path class="cls-2" d="m28.37,7.5v-.48l1.08-.36v-1.36l1.42-.74h.61v2.1h1.64v.84h-1.64v4.3c0,.13.03.25.1.35s.16.15.27.15c.07,0,.15-.02.23-.07s.17-.1.24-.17.14-.13.2-.19.1-.12.13-.15l.69.55c-.11.17-.24.34-.37.49s-.29.28-.46.39-.37.19-.6.26-.49.09-.78.09-.53-.04-.74-.12-.38-.19-.52-.34-.24-.32-.31-.52-.1-.42-.1-.67v-4.36h-1.08Z"/>
  </g>
</svg>