<?xml version="1.0" encoding="UTF-8"?>
<svg id="_图层_1" data-name="图层 1" xmlns="http://www.w3.org/2000/svg" viewBox="0 0 114 67">
  <defs>
    <style>
      .cls-1 {
        fill: #fff;
      }
    </style>
  </defs>
  <path class="cls-1" d="M114,29.71v4.55c0,5.64-5.09,16.82-18.46,16.82-10.3,0-18.46-7.83-18.46-17.91s8.16-17.91,18.46-17.91c5.48,0,10.85,2.25,14.68,7.07l-5.26,3.94c-2.19-3.18-5.53-4.99-9.42-4.99-6.19,0-11.78,5.2-11.78,11.89s5.59,11.89,11.78,11.89c5.7,0,10.3-3.45,11.67-9.31h-11.71v-6.03h18.5Zm-39.08,6.37c-.14-.95-.21-1.93-.21-2.92,0-1.11,.09-2.19,.27-3.25-5.43-.77-10.76-.85-10.76-4.64,0-2.08,1.97-4.66,7.23-4.66,2.28,0,4.33,.49,6.39,1.77,1.11-1.75,2.48-3.31,4.06-4.65-2.84-1.64-6.22-2.49-10.12-2.49-7.83,0-14.24,4.22-14.24,10.35,0,9.81,10.86,9.14,17.39,10.48Zm2.69,7.49c-1.46,.95-3.59,1.45-6.1,1.48-4,0-7.62-1.92-10.19-4.66l-4.82,4.33c4.33,4.55,9.92,6.36,14.74,6.36,3.8,0,7.47-1.01,10.24-2.86-1.51-1.35-2.81-2.92-3.86-4.65Zm-23.61-26.88h-21.05v6.22h21.05v-6.22Zm0,14.08h-21.05v6.22h21.05v-6.22ZM14.1,45.7c-4.37-.56-7.74-4.22-7.74-10V16.68H0s0,20.38,0,20.38c0,7.6,5.56,14.14,14.1,14.69v-6.06Zm10.12-29.01v19.01c0,5.79-3.33,9.45-7.74,10v6.06c8.54-.56,14.1-7.1,14.1-14.69V16.68h-6.36Zm6.9,28.17c-.68,1.37-2.35,4.16-5.49,6.22h28.36v-6.22H31.12Z"/>
</svg>