<?xml version="1.0" encoding="UTF-8"?>
<svg id="_图层_1" data-name="图层 1" xmlns="http://www.w3.org/2000/svg" viewBox="0 0 44 18">
  <defs>
    <style>
      .cls-1 {
        fill: #ff9500;
      }

      .cls-1, .cls-2 {
        stroke-width: 0px;
      }

      .cls-2 {
        fill: #fff;
      }
    </style>
  </defs>
  <rect class="cls-1" y="0" width="44" height="18" rx="9" ry="9"/>
  <g>
    <path class="cls-2" d="m8.17,4.5h1.39l5.04,5.63v-5.63h1.36v8.98h-.93l-5.48-6.21v6.08h-1.38V4.5Z"/>
    <path class="cls-2" d="m21.05,13.5c-.47,0-.92-.09-1.34-.26s-.78-.41-1.09-.71-.55-.64-.73-1.04-.27-.81-.27-1.25c0-.53.08-1.01.25-1.47s.4-.84.7-1.17.67-.59,1.09-.77.9-.28,1.42-.28c.47,0,.89.07,1.28.22s.72.35,1,.61.49.56.64.91.23.72.23,1.12h-4.63c.02.37.07.72.17,1.06s.22.63.38.88.34.46.55.61.44.23.7.23c.22,0,.44-.04.66-.11s.41-.18.6-.31.34-.29.48-.46.23-.37.29-.57l1.03.16c-.1.36-.27.7-.5,1.02s-.5.6-.8.84-.64.43-1,.56-.73.21-1.1.21Zm.85-4.79c-.02-.2-.06-.38-.13-.54s-.15-.3-.26-.42-.23-.21-.37-.27-.29-.09-.45-.09c-.13,0-.25.03-.37.09s-.23.15-.33.27-.18.25-.25.42-.11.34-.13.54h2.28Z"/>
    <path class="cls-2" d="m27.15,6.67l1.78,3.92,1.72-3.97h.4l1.79,3.92,1.69-3.87h1.31l-2.96,6.83h-.93l-1.46-3.35-1.44,3.35h-.99l-3.03-6.83h2.12Z"/>
  </g>
</svg>