<?xml version="1.0" encoding="UTF-8"?>
<svg id="_图层_1" data-name="图层 1" xmlns="http://www.w3.org/2000/svg" viewBox="0 0 12 12">
  <defs>
    <style>
      .cls-1 {
        fill: #007aff;
        stroke-width: 0px;
      }
    </style>
  </defs>
  <path class="cls-1" d="m3.68,11.53c-.72-.31-1.36-.75-1.91-1.3s-.99-1.19-1.3-1.91-.47-1.5-.47-2.32.16-1.59.47-2.32.75-1.36,1.3-1.91,1.19-.98,1.91-1.3,1.49-.47,2.31-.47,1.59.16,2.32.47,1.36.75,1.91,1.3.99,1.19,1.3,1.91.47,1.5.47,2.32-.16,1.6-.47,2.32-.75,1.36-1.3,1.91-1.19.99-1.91,1.3-1.5.47-2.32.47-1.6-.16-2.32-.47Zm4.23-1.01c.59-.25,1.11-.6,1.56-1.05s.8-.97,1.05-1.56.38-1.23.38-1.91-.13-1.32-.38-1.91-.6-1.11-1.05-1.56-.97-.8-1.57-1.05-1.23-.38-1.91-.38-1.31.13-1.91.38-1.11.6-1.56,1.05-.8.97-1.05,1.56-.38,1.23-.38,1.91.13,1.32.38,1.91.6,1.11,1.05,1.56.97.8,1.56,1.05,1.23.38,1.91.38,1.32-.13,1.91-.38Zm-1.73-8.04c.06.02.12.07.18.12l2.33,2.5c.08.09.14.17.17.23s.06.13.06.21c0,.12-.04.21-.12.29s-.18.11-.29.11h-1.23v2.58c0,.23-.06.42-.19.55s-.31.19-.54.19h-1.09c-.23,0-.4-.06-.53-.19s-.19-.31-.19-.55v-2.58h-1.24c-.12,0-.22-.04-.29-.11s-.11-.17-.11-.28c0-.08.02-.16.05-.23s.08-.14.15-.22l2.35-2.5c.05-.06.11-.1.17-.12s.12-.04.17-.04c.06,0,.12.01.18.04Z"/>
</svg>