<?xml version="1.0" encoding="UTF-8"?>
<svg id="_图层_1" data-name="图层 1" xmlns="http://www.w3.org/2000/svg" viewBox="0 0 12 12">
  <defs>
    <style>
      .cls-1 {
        fill: #007aff;
        stroke-width: 0px;
      }
    </style>
  </defs>
  <path class="cls-1" d="m3.68,11.53c-.72-.31-1.36-.75-1.91-1.3s-.99-1.19-1.3-1.91-.47-1.5-.47-2.32.16-1.59.47-2.32.75-1.36,1.3-1.91,1.19-.98,1.91-1.3,1.49-.47,2.31-.47,1.59.16,2.32.47,1.36.75,1.91,1.3.99,1.19,1.3,1.91.47,1.5.47,2.32-.16,1.6-.47,2.32-.75,1.36-1.3,1.91-1.19.99-1.91,1.3-1.5.47-2.32.47-1.6-.16-2.32-.47ZM5.83,2.36c-.06.02-.12.07-.18.13l-2.43,2.59c-.07.07-.12.15-.16.22s-.06.15-.06.23c0,.12.04.21.12.29s.17.12.29.12h1.28v2.65c0,.25.07.44.2.57s.32.2.56.2h1.12c.24,0,.43-.07.56-.2s.2-.33.2-.57v-2.65h1.27c.12,0,.22-.04.3-.12s.13-.18.13-.31c0-.08-.02-.15-.06-.22s-.1-.14-.18-.23l-2.4-2.59c-.06-.06-.12-.1-.19-.13s-.12-.04-.18-.04-.12.01-.18.04Z"/>
</svg>