<?xml version="1.0" standalone="no"?><!DOCTYPE svg PUBLIC "-//W3C//DTD SVG 1.1//EN" "http://www.w3.org/Graphics/SVG/1.1/DTD/svg11.dtd"><svg t="1709171809422" class="icon" viewBox="0 0 1024 1024" version="1.1" xmlns="http://www.w3.org/2000/svg" p-id="3895" xmlns:xlink="http://www.w3.org/1999/xlink" width="200" height="200"><path d="M900.8 277.0333333c11.2 0 28.1 5.6 39.3 11.2 22.5 22.5 28.1 56.2 5.6 78.6l-307.3 356c-33.7 33.7-73 56.2-117.9 56.2-44.9 0-89.9-16.8-117.9-50.5L76 368.0333333c-16.8-22.5-16.8-56.2 5.6-78.6 22.5-16.9 56.2-16.9 78.6 5.6l326.5 360.5c5.6 5.6 22.5 11.2 28.1 11.2 16.8 0 22.5-5.6 33.7-11.2L855.8 293.9333333c11.3-11.3 28.1-16.9 45-16.9z m0 0" fill="#2c2c2c" p-id="3896"></path></svg>