<?xml version="1.0" standalone="no"?><!DOCTYPE svg PUBLIC "-//W3C//DTD SVG 1.1//EN" "http://www.w3.org/Graphics/SVG/1.1/DTD/svg11.dtd"><svg t="1709171819852" class="icon" viewBox="0 0 1024 1024" version="1.1" xmlns="http://www.w3.org/2000/svg" p-id="4064" xmlns:xlink="http://www.w3.org/1999/xlink" width="200" height="200"><path d="M900.8 959.6c-16.8 0-33.7-5.6-44.9-16.9L548.5 581.1c-11.2-5.6-16.9-11.2-33.7-11.2-5.6 0-22.5 5.6-28.1 11.2L160.3 941.6c-22.5 22.5-56.2 22.5-78.6 5.6-22.5-22.5-22.5-56.2-5.6-78.6l326.5-360.5c28.1-33.7 73-50.5 117.9-50.5 44.9 0 84.2 22.5 117.9 56.2l307.3 356c22.5 22.5 16.8 56.2-5.6 78.6-11.3 5.5-28.1 11.2-39.3 11.2z m0 0" fill="#2c2c2c" p-id="4065"></path></svg>